<?xml version="1.0" encoding="utf-8"?>
<!-- Generator: Adobe Illustrator 24.2.1, SVG Export Plug-In . SVG Version: 6.00 Build 0)  -->
<svg version="1.1" id="Camada_1" xmlns="http://www.w3.org/2000/svg" xmlns:xlink="http://www.w3.org/1999/xlink" x="0px" y="0px"
	 viewBox="0 0 1284 784.5" style="enable-background:new 0 0 1284 784.5;" xml:space="preserve">
<style type="text/css">
	.st0{fill:#FFFFFF;}
</style>
<g>
	<path class="st0" d="M411,0H297L0,382.1v66.8h303.2v335.5H411v-147h252.6v-79.4H420.2V439.2H580v-64H420.2V243.3h243.4v-80.2H411V0
		z M303.2,179.8v184.9H123.9l147.2-183.9l0.6-0.8c11.9-17.8,22.2-33.8,32.4-50.3C303.5,146.4,303.2,163.2,303.2,179.8z"/>
	<path class="st0" d="M1053.1,0.4L900.9,353.7l33,0.1L910.4,407l-98.6-243.9H672.2v474.1h97.5V305.3l147.1,331.9l0.1-0.2l0.1,0.2
		l1.1-2.6l119.6-280.4l33.9,0.1l51.1-118.7v549.2H1284V0.4H1053.1z M1251.8,758.7H1155V163.1h-35.2l-70.1,162.8H947.1L1076,26.6
		h175.8L1251.8,758.7z"/>
</g>
</svg>
